<?xml version="1.0" standalone="no"?><!DOCTYPE svg PUBLIC "-//W3C//DTD SVG 1.1//EN" "http://www.w3.org/Graphics/SVG/1.1/DTD/svg11.dtd"><svg class="icon" width="200px" height="200.00px" viewBox="0 0 1024 1024" version="1.1" xmlns="http://www.w3.org/2000/svg"><path fill="#d4237a" d="M507.377674 1024c-19.177491 0-41.750039-0.665248-67.075338-1.972804-25.302359-1.307556-51.407603-3.119783-78.384552-5.413741-26.88519-2.316898-53.586864-4.93201-80.12796-7.891216-26.701673-2.959206-50.925872-6.078989-72.649656-9.382289-21.792603-3.3033-40.648939-6.675418-56.087278-10.047537-19.888618-4.312641-30.968436-8.556464-38.171464-14.589574-11.630368-9.267591-18.466363-27.43574-23.168978-62.372723-3.899729-29.08739-2.431596-65.079594 4.450279-110.018235 4.014427-29.63794 16.562378-53.196891 37.185062-69.621631 17.892874-14.222541 38.836712-25.646453 62.280965-33.927642 21.609086-7.638881 44.43397-14.566635 67.832344-20.576805 20.370349-5.253164 38.561437-12.846166 53.999776-22.595488 11.974462-7.409485 20.87502-14.26842 26.586976-20.507986 5.299043-5.803714 9.129954-11.469791 11.332153-16.722955 2.087502-5.046708 3.119783-10.162235 3.119783-15.598916 0-8.028854-0.321154-16.99823-0.940523-26.88519-0.757006-8.78586-3.601514-15.690674-8.625283-20.530926-8.717041-8.395887-18.466363-17.02117-28.949752-25.646453-8.097672-7.088331-14.543695-15.943009-19.75098-26.839311-4.175004-8.694102-8.005914-17.54878-11.469791-26.586976-2.546294-7.547122-4.93201-14.956607-7.225968-22.549609-2.75275-1.468133-5.436681-3.165662-8.120612-5.069648-6.514841-5.344923-11.813885-10.96512-17.457022-18.214028-6.400143-8.23531-11.51567-19.016913-15.644795-32.987119-4.656735-13.121441-6.514841-26.678734-5.207285-39.180806 1.215798-11.194516 3.509756-21.104415 6.881875-29.523242 2.385717-6.652479 6.101929-13.396716 10.919241-19.957436-0.206456-22.939582 1.238737-46.200318 4.266762-69.231658 2.706871-21.700845 7.7077-45.512131 14.81897-70.630973 7.547122-26.586976 19.062793-50.673537 34.225856-71.640315 13.327897-19.659222 29.06445-36.473935 46.360895-49.343041 16.791774-12.502072 34.248796-22.48079 51.912274-29.683819 17.617599-7.180089 35.533412-12.112099 53.24277-14.635453 38.676135-5.551379 75.035373-4.909071 110.867 3.257421 19.819799 4.519098 38.790833 10.735724 56.339613 18.443424 17.663478 7.753579 33.675306 16.768834 47.599633 26.770492 14.360178 10.322812 25.944667 21.012657 34.432313 31.771321 18.466363 22.733126 32.298931 48.471337 40.970093 76.182352 8.120612 26.128184 13.970205 51.453482 17.411143 75.333587 2.982146 23.971863 4.656735 48.150183 5.046708 72.259683 3.28036 3.739152 6.101929 7.914156 8.372947 12.525012 3.165662 5.436681 6.03311 13.236139 8.166491 22.710186 2.271019 9.86402 2.546294 21.081476 0.894644 34.294675-1.514012 16.149466-5.046708 29.615-10.712785 40.465423-5.528439 10.621026-12.043281 19.269249-19.383947 25.692332-4.679675 4.152064-9.634624 7.615941-14.79603 10.368691-2.316898 7.524183-4.587916 14.727212-6.881875 21.586147-3.876789 10.162235-8.028854 19.338068-12.63971 28.238625-5.551379 10.621026-12.06622 19.269249-19.406886 25.715271-12.914985 10.231054-22.687247 18.282847-30.280248 24.912386-1.65165 1.445194-5.711956 6.354264-8.074733 21.012657-1.697529 8.625283-2.225139 16.631197-1.697529 24.68299 0.481731 7.180089 2.431596 14.314299 6.05605 21.746724 3.555635 7.363606 9.33641 14.681332 17.181747 21.769663 7.982975 7.180089 19.911557 13.947266 35.487533 20.072134 15.484218 6.193687 32.528327 11.836824 50.811174 16.768834 19.705101 5.344923 39.295504 11.630368 58.17478 18.718699 20.026255 7.501243 38.102646 17.02117 53.701561 28.238625 17.892874 12.914985 30.7161 30.693161 38.102646 52.829857 3.876789 12.410314 6.56072 26.449338 8.372947 43.37875 1.697529 16.195345 2.569233 32.620086 2.569233 48.81543 0 16.814714-1.261677 32.872421-3.739152 47.714331-2.821569 16.929412-7.248908 29.959094-13.557293 39.800175-7.248908 10.253993-19.20043 16.929412-40.580121 23.306615-15.943009 4.771433-35.785748 9.382289-58.931786 13.763749-22.893703 4.312641-48.723672 8.143552-76.732902 11.446851-27.940411 3.3033-56.018459 6.078989-84.302964 8.395887-28.238625 2.293958-55.307332 4.106185-81.251999 5.413741C549.448868 1023.334752 526.555165 1024 507.377674 1024zM144.702883 939.444701c2.225139 0.917583 7.386545 2.706871 18.076391 5.046708 14.474876 3.142723 32.39069 6.331325 53.21983 9.496987 21.173234 3.211541 44.801004 6.262506 70.837429 9.129954 26.197003 2.913327 52.485764 5.5055 78.958041 7.753579 26.426398 2.248079 52.072851 4.037366 76.870539 5.321983 24.522413 1.261677 46.315016 1.903985 64.689621 1.903985 18.420484 0 40.534241-0.642308 65.698963-1.903985 25.485876-1.284617 52.095791-3.073904 79.852685-5.321983 27.688075-2.271019 55.238513-5.000829 82.651314-8.23531 26.999888-3.165662 51.751697-6.858935 73.613119-10.98806 21.586147-4.083246 39.868993-8.327068 54.32093-12.61677 9.932839-2.959206 14.520755-5.184346 16.310043-6.216627 1.330496-2.706871 3.739152-8.992316 5.666077-20.507986 2.064562-12.364435 3.119783-25.852909 3.119783-40.144268 0-14.612514-0.779946-29.408544-2.316898-43.975179-1.468133-13.69493-3.624454-25.187661-6.423083-34.134098-4.197944-12.570891-11.217456-22.457851-21.287932-29.729698-12.272676-8.831739-26.724613-16.401801-42.965837-22.48079-17.54878-6.58366-35.739869-12.433253-54.068595-17.388203-19.980376-5.413741-38.722014-11.630368-55.720245-18.420484-20.87502-8.189431-37.047425-17.594659-49.320101-28.674477-12.249737-11.079818-21.586147-23.146038-27.733955-35.831627-6.147808-12.708528-9.680504-25.761151-10.529268-38.767894-0.779946-12.043281 0.02294-24.063621 2.362777-35.739869 3.349179-21.058536 10.942181-36.863908 23.008401-47.439056 8.051793-7.042452 18.443424-15.575976 31.151952-25.623513 2.064562-1.858106 5.161406-6.147808 8.028854-11.630368 3.83091-7.363606 7.225968-14.933668 10.139295-22.50373 2.821569-8.556464 5.987231-18.718699 9.175833-29.523242l3.509756-11.905643 11.905643-3.578575c3.257421-0.963462 6.58366-2.959206 9.932839-5.918412 3.073904-2.706871 6.170748-6.996573 9.038195-12.456193 1.949864-3.739152 4.519098-10.98806 5.803714-24.293017 1.261677-10.276933 0.665248-15.988889-0.02294-19.085732-1.422254-6.170748-2.913327-9.565806-3.922669-11.309214-1.491073-2.936266-2.615112-4.312641-4.129125-5.367862l-9.611685-6.858935 0-11.813885c0-25.554694-1.582831-51.201147-4.702614-76.228231-3.028025-21.058536-8.327068-43.998118-15.759493-67.786465-6.904814-22.113757-18.007572-42.713502-32.987119-61.179865-6.03311-7.66182-14.497816-15.34658-25.325299-23.168978-11.355093-8.143552-24.591232-15.553037-39.318444-22.021999-14.887789-6.56072-31.060194-11.836824-48.081364-15.713614-30.394946-6.950693-61.088107-7.340666-94.166984-2.592173-13.993145 1.995744-28.261565 5.941352-42.415287 11.699187-14.061964 5.734895-28.146867 13.832568-41.841798 24.017742-13.14438 9.818141-25.325299 22.893703-36.175721 38.882591-12.433253 17.158807-21.586147 36.405117-27.665136 57.830686-6.491902 22.893703-11.010999 44.411031-13.465535 63.932615-3.119783 23.673649-4.358521 47.416116-3.739152 70.745671l0.229396 9.129954-6.101929 6.790116c-3.85385 4.312641-6.6066 8.694102-8.166491 13.006743-2.087502 5.230225-3.372119 11.079818-4.152064 18.076391-0.57349 5.620198 0.481731 12.433253 3.234481 20.186832 3.555635 11.951522 6.652479 16.929412 8.189431 18.925155 4.4044 5.643137 7.455364 8.602343 9.244652 10.093416 1.055221 0.688187 3.3033 1.858106 5.276104 2.408656l12.157978 3.463877 3.555635 12.112099c3.165662 10.781604 6.308385 20.920899 9.496987 30.417886 2.683931 6.973633 6.03311 14.704272 9.680504 22.297274 2.477475 5.184346 5.276104 9.221712 8.097672 11.699187 10.850422 8.923497 21.494388 18.351666 31.060194 27.573378 13.19026 12.685589 20.760322 29.569121 22.549609 50.168866 0.711127 11.492731 1.07816 21.42557 1.07816 30.303188 0 11.446851-2.248079 22.595488-6.629539 33.216515-4.266762 10.208114-10.942181 20.32447-19.865678 30.119671-8.717041 9.496987-20.530926 18.764578-36.106902 28.422142-19.361007 12.203858-41.910616 21.677905-66.891821 28.100988-22.090817 5.689016-43.608145 12.226797-63.932615 19.429826-18.64988 6.58366-35.1205 15.530097-49.021887 26.586976-11.240395 8.923497-17.892874 22.113757-20.370349 40.281906-6.216627 40.373664-7.66182 72.99375-4.38146 97.332646C140.092027 927.906091 143.349448 936.577253 144.702883 939.444701z" /></svg>